%TF.GenerationSoftware,KiCad,Pcbnew,10.0.3*%
%TF.CreationDate,2026-05-22T15:59:18+02:00*%
%TF.ProjectId,Mixer,4d697865-722e-46b6-9963-61645f706362,rev?*%
%TF.SameCoordinates,Original*%
%TF.FileFunction,Paste,Bot*%
%TF.FilePolarity,Positive*%
%FSLAX46Y46*%
G04 Gerber Fmt 4.6, Leading zero omitted, Abs format (unit mm)*
G04 Created by KiCad (PCBNEW 10.0.3) date 2026-05-22 15:59:18*
%MOMM*%
%LPD*%
G01*
G04 APERTURE LIST*
G04 Aperture macros list*
%AMRoundRect*
0 Rectangle with rounded corners*
0 $1 Rounding radius*
0 $2 $3 $4 $5 $6 $7 $8 $9 X,Y pos of 4 corners*
0 Add a 4 corners polygon primitive as box body*
4,1,4,$2,$3,$4,$5,$6,$7,$8,$9,$2,$3,0*
0 Add four circle primitives for the rounded corners*
1,1,$1+$1,$2,$3*
1,1,$1+$1,$4,$5*
1,1,$1+$1,$6,$7*
1,1,$1+$1,$8,$9*
0 Add four rect primitives between the rounded corners*
20,1,$1+$1,$2,$3,$4,$5,0*
20,1,$1+$1,$4,$5,$6,$7,0*
20,1,$1+$1,$6,$7,$8,$9,0*
20,1,$1+$1,$8,$9,$2,$3,0*%
G04 Aperture macros list end*
%ADD10RoundRect,0.225000X-0.225000X-0.375000X0.225000X-0.375000X0.225000X0.375000X-0.225000X0.375000X0*%
%ADD11RoundRect,0.250000X0.350000X0.450000X-0.350000X0.450000X-0.350000X-0.450000X0.350000X-0.450000X0*%
%ADD12RoundRect,0.250000X-0.450000X0.350000X-0.450000X-0.350000X0.450000X-0.350000X0.450000X0.350000X0*%
%ADD13RoundRect,0.250000X-0.350000X-0.450000X0.350000X-0.450000X0.350000X0.450000X-0.350000X0.450000X0*%
%ADD14RoundRect,0.250000X0.275000X0.350000X-0.275000X0.350000X-0.275000X-0.350000X0.275000X-0.350000X0*%
%ADD15RoundRect,0.250000X-0.475000X0.337500X-0.475000X-0.337500X0.475000X-0.337500X0.475000X0.337500X0*%
%ADD16RoundRect,0.250000X-0.337500X-0.475000X0.337500X-0.475000X0.337500X0.475000X-0.337500X0.475000X0*%
%ADD17RoundRect,0.150000X-0.825000X-0.150000X0.825000X-0.150000X0.825000X0.150000X-0.825000X0.150000X0*%
%ADD18RoundRect,0.250000X0.450000X-0.350000X0.450000X0.350000X-0.450000X0.350000X-0.450000X-0.350000X0*%
%ADD19RoundRect,0.250000X0.475000X-0.337500X0.475000X0.337500X-0.475000X0.337500X-0.475000X-0.337500X0*%
%ADD20RoundRect,0.150000X-0.150000X0.825000X-0.150000X-0.825000X0.150000X-0.825000X0.150000X0.825000X0*%
%ADD21R,2.450000X2.350000*%
%ADD22RoundRect,0.150000X0.587500X0.150000X-0.587500X0.150000X-0.587500X-0.150000X0.587500X-0.150000X0*%
%ADD23RoundRect,0.250000X0.337500X0.475000X-0.337500X0.475000X-0.337500X-0.475000X0.337500X-0.475000X0*%
%ADD24RoundRect,0.250000X-0.400000X-0.600000X0.400000X-0.600000X0.400000X0.600000X-0.400000X0.600000X0*%
%ADD25RoundRect,0.150000X-0.587500X-0.150000X0.587500X-0.150000X0.587500X0.150000X-0.587500X0.150000X0*%
%ADD26RoundRect,0.250000X0.400000X0.600000X-0.400000X0.600000X-0.400000X-0.600000X0.400000X-0.600000X0*%
G04 APERTURE END LIST*
D10*
%TO.C,D4*%
X78950000Y-126725000D03*
X82250000Y-126725000D03*
%TD*%
%TO.C,D3*%
X93850000Y-126775000D03*
X97150000Y-126775000D03*
%TD*%
D11*
%TO.C,R67*%
X108700000Y-132200000D03*
X106700000Y-132200000D03*
%TD*%
D12*
%TO.C,R19*%
X73250000Y-117487500D03*
X73250000Y-119487500D03*
%TD*%
%TO.C,R57*%
X92900000Y-69000000D03*
X92900000Y-71000000D03*
%TD*%
D13*
%TO.C,R42*%
X81512500Y-108030000D03*
X83512500Y-108030000D03*
%TD*%
D14*
%TO.C,FB1*%
X95900000Y-124675000D03*
X93600000Y-124675000D03*
%TD*%
D13*
%TO.C,R21*%
X64500000Y-88975000D03*
X66500000Y-88975000D03*
%TD*%
D11*
%TO.C,R47*%
X83512500Y-114030000D03*
X81512500Y-114030000D03*
%TD*%
%TO.C,R32*%
X111700000Y-97525000D03*
X109700000Y-97525000D03*
%TD*%
D15*
%TO.C,C13*%
X67500000Y-111762500D03*
X67500000Y-113837500D03*
%TD*%
D16*
%TO.C,C19*%
X70162500Y-103925000D03*
X72237500Y-103925000D03*
%TD*%
D11*
%TO.C,R51*%
X83375000Y-120200000D03*
X81375000Y-120200000D03*
%TD*%
D17*
%TO.C,U4*%
X68700000Y-92395000D03*
X68700000Y-91125000D03*
X68700000Y-89855000D03*
X68700000Y-88585000D03*
X73650000Y-88585000D03*
X73650000Y-89855000D03*
X73650000Y-91125000D03*
X73650000Y-92395000D03*
%TD*%
D18*
%TO.C,R18*%
X73250000Y-108187500D03*
X73250000Y-106187500D03*
%TD*%
D13*
%TO.C,R37*%
X64550000Y-102275000D03*
X66550000Y-102275000D03*
%TD*%
D17*
%TO.C,U6*%
X68750000Y-102045000D03*
X68750000Y-100775000D03*
X68750000Y-99505000D03*
X68750000Y-98235000D03*
X73700000Y-98235000D03*
X73700000Y-99505000D03*
X73700000Y-100775000D03*
X73700000Y-102045000D03*
%TD*%
D18*
%TO.C,R20*%
X69200000Y-119500000D03*
X69200000Y-117500000D03*
%TD*%
%TO.C,R58*%
X94900000Y-71000000D03*
X94900000Y-69000000D03*
%TD*%
D11*
%TO.C,R25*%
X66500000Y-90975000D03*
X64500000Y-90975000D03*
%TD*%
D19*
%TO.C,C12*%
X108800000Y-113875000D03*
X108800000Y-111800000D03*
%TD*%
D13*
%TO.C,R65*%
X106700000Y-134200000D03*
X108700000Y-134200000D03*
%TD*%
D11*
%TO.C,R1*%
X63000000Y-38375000D03*
X61000000Y-38375000D03*
%TD*%
D18*
%TO.C,R74*%
X103000000Y-119400000D03*
X103000000Y-117400000D03*
%TD*%
D13*
%TO.C,R62*%
X113400000Y-36400000D03*
X115400000Y-36400000D03*
%TD*%
D20*
%TO.C,U10*%
X103090000Y-110275000D03*
X104360000Y-110275000D03*
X105630000Y-110275000D03*
X106900000Y-110275000D03*
X106900000Y-115225000D03*
X105630000Y-115225000D03*
X104360000Y-115225000D03*
X103090000Y-115225000D03*
%TD*%
D11*
%TO.C,R40*%
X111700000Y-101525000D03*
X109700000Y-101525000D03*
%TD*%
D21*
%TO.C,C10*%
X78800000Y-135575000D03*
X78800000Y-129375000D03*
%TD*%
D17*
%TO.C,U1*%
X85725000Y-72530000D03*
X85725000Y-71260000D03*
X85725000Y-69990000D03*
X85725000Y-68720000D03*
X90675000Y-68720000D03*
X90675000Y-69990000D03*
X90675000Y-71260000D03*
X90675000Y-72530000D03*
%TD*%
D11*
%TO.C,R34*%
X66550000Y-100275000D03*
X64550000Y-100275000D03*
%TD*%
D22*
%TO.C,Q2*%
X65607500Y-131275000D03*
X65607500Y-133175000D03*
X63732500Y-132225000D03*
%TD*%
D23*
%TO.C,C25*%
X115437500Y-40400000D03*
X113362500Y-40400000D03*
%TD*%
%TO.C,C21*%
X106125000Y-86720000D03*
X104050000Y-86720000D03*
%TD*%
D11*
%TO.C,R26*%
X77850000Y-90975000D03*
X75850000Y-90975000D03*
%TD*%
D17*
%TO.C,U7*%
X102525000Y-101930000D03*
X102525000Y-100660000D03*
X102525000Y-99390000D03*
X102525000Y-98120000D03*
X107475000Y-98120000D03*
X107475000Y-99390000D03*
X107475000Y-100660000D03*
X107475000Y-101930000D03*
%TD*%
D24*
%TO.C,D1*%
X61100000Y-34175000D03*
X64600000Y-34175000D03*
%TD*%
D11*
%TO.C,R54*%
X94700000Y-122200000D03*
X92700000Y-122200000D03*
%TD*%
%TO.C,R35*%
X100300000Y-99525000D03*
X98300000Y-99525000D03*
%TD*%
D23*
%TO.C,C4*%
X89237500Y-66875000D03*
X87162500Y-66875000D03*
%TD*%
D13*
%TO.C,R61*%
X113400000Y-38400000D03*
X115400000Y-38400000D03*
%TD*%
D11*
%TO.C,R66*%
X108700000Y-138200000D03*
X106700000Y-138200000D03*
%TD*%
D13*
%TO.C,R64*%
X106700000Y-136200000D03*
X108700000Y-136200000D03*
%TD*%
D11*
%TO.C,R24*%
X111750000Y-88950000D03*
X109750000Y-88950000D03*
%TD*%
D16*
%TO.C,C16*%
X70150000Y-94275000D03*
X72225000Y-94275000D03*
%TD*%
D21*
%TO.C,C9*%
X97200000Y-129375000D03*
X97200000Y-135575000D03*
%TD*%
D18*
%TO.C,R72*%
X107100000Y-108100000D03*
X107100000Y-106100000D03*
%TD*%
D11*
%TO.C,R52*%
X94700000Y-120200000D03*
X92700000Y-120200000D03*
%TD*%
D19*
%TO.C,C14*%
X75000000Y-113975000D03*
X75000000Y-111900000D03*
%TD*%
D16*
%TO.C,C3*%
X87175000Y-74375000D03*
X89250000Y-74375000D03*
%TD*%
D17*
%TO.C,U9*%
X85550000Y-122615000D03*
X85550000Y-121345000D03*
X85550000Y-120075000D03*
X85550000Y-118805000D03*
X90500000Y-118805000D03*
X90500000Y-120075000D03*
X90500000Y-121345000D03*
X90500000Y-122615000D03*
%TD*%
D13*
%TO.C,R39*%
X98300000Y-101525000D03*
X100300000Y-101525000D03*
%TD*%
D17*
%TO.C,U8*%
X85662500Y-112930000D03*
X85662500Y-111660000D03*
X85662500Y-110390000D03*
X85662500Y-109120000D03*
X90612500Y-109120000D03*
X90612500Y-110390000D03*
X90612500Y-111660000D03*
X90612500Y-112930000D03*
%TD*%
D11*
%TO.C,R50*%
X94700000Y-118200000D03*
X92700000Y-118200000D03*
%TD*%
D13*
%TO.C,R31*%
X98300000Y-97525000D03*
X100300000Y-97525000D03*
%TD*%
D11*
%TO.C,R48*%
X94812500Y-114030000D03*
X92812500Y-114030000D03*
%TD*%
D13*
%TO.C,R29*%
X64550000Y-98275000D03*
X66550000Y-98275000D03*
%TD*%
D18*
%TO.C,R16*%
X71200000Y-119487500D03*
X71200000Y-117487500D03*
%TD*%
D11*
%TO.C,R63*%
X107700000Y-36900000D03*
X105700000Y-36900000D03*
%TD*%
%TO.C,R60*%
X94800000Y-74900000D03*
X92800000Y-74900000D03*
%TD*%
D16*
%TO.C,C26*%
X113725000Y-134200000D03*
X115800000Y-134200000D03*
%TD*%
D12*
%TO.C,R4*%
X83450000Y-69025000D03*
X83450000Y-71025000D03*
%TD*%
D23*
%TO.C,C24*%
X106100000Y-96275000D03*
X104025000Y-96275000D03*
%TD*%
D18*
%TO.C,R70*%
X105000000Y-119400000D03*
X105000000Y-117400000D03*
%TD*%
D23*
%TO.C,C15*%
X72250000Y-86725000D03*
X70175000Y-86725000D03*
%TD*%
D20*
%TO.C,U3*%
X69345000Y-110362500D03*
X70615000Y-110362500D03*
X71885000Y-110362500D03*
X73155000Y-110362500D03*
X73155000Y-115312500D03*
X71885000Y-115312500D03*
X70615000Y-115312500D03*
X69345000Y-115312500D03*
%TD*%
D16*
%TO.C,C5*%
X87050000Y-114825000D03*
X89125000Y-114825000D03*
%TD*%
D12*
%TO.C,R73*%
X107000000Y-117400000D03*
X107000000Y-119400000D03*
%TD*%
D18*
%TO.C,R71*%
X103100000Y-108100000D03*
X103100000Y-106100000D03*
%TD*%
D25*
%TO.C,Q5*%
X110962500Y-136950000D03*
X110962500Y-135050000D03*
X112837500Y-136000000D03*
%TD*%
D16*
%TO.C,C23*%
X103950000Y-103775000D03*
X106025000Y-103775000D03*
%TD*%
D13*
%TO.C,R11*%
X67800000Y-131950000D03*
X69800000Y-131950000D03*
%TD*%
D11*
%TO.C,R46*%
X94812500Y-107980000D03*
X92812500Y-107980000D03*
%TD*%
D23*
%TO.C,C18*%
X89125000Y-116925000D03*
X87050000Y-116925000D03*
%TD*%
D11*
%TO.C,R3*%
X75150000Y-36875000D03*
X73150000Y-36875000D03*
%TD*%
%TO.C,R68*%
X108700000Y-130200000D03*
X106700000Y-130200000D03*
%TD*%
D17*
%TO.C,U5*%
X102575000Y-92380000D03*
X102575000Y-91110000D03*
X102575000Y-89840000D03*
X102575000Y-88570000D03*
X107525000Y-88570000D03*
X107525000Y-89840000D03*
X107525000Y-91110000D03*
X107525000Y-92380000D03*
%TD*%
D11*
%TO.C,R10*%
X69800000Y-137950000D03*
X67800000Y-137950000D03*
%TD*%
D18*
%TO.C,R5*%
X81450000Y-71025000D03*
X81450000Y-69025000D03*
%TD*%
D13*
%TO.C,R49*%
X81375000Y-118200000D03*
X83375000Y-118200000D03*
%TD*%
D22*
%TO.C,Q3*%
X65607500Y-134775000D03*
X65607500Y-136675000D03*
X63732500Y-135725000D03*
%TD*%
D11*
%TO.C,R12*%
X69800000Y-133950000D03*
X67800000Y-133950000D03*
%TD*%
D13*
%TO.C,R41*%
X81512500Y-111980000D03*
X83512500Y-111980000D03*
%TD*%
D11*
%TO.C,R36*%
X111700000Y-99525000D03*
X109700000Y-99525000D03*
%TD*%
%TO.C,R44*%
X94800000Y-112000000D03*
X92800000Y-112000000D03*
%TD*%
D16*
%TO.C,C17*%
X86975000Y-124525000D03*
X89050000Y-124525000D03*
%TD*%
D13*
%TO.C,R23*%
X98375000Y-88970000D03*
X100375000Y-88970000D03*
%TD*%
D11*
%TO.C,R33*%
X77900000Y-100175000D03*
X75900000Y-100175000D03*
%TD*%
D18*
%TO.C,R17*%
X69100000Y-108200000D03*
X69100000Y-106200000D03*
%TD*%
D13*
%TO.C,R43*%
X81512500Y-109980000D03*
X83512500Y-109980000D03*
%TD*%
D16*
%TO.C,C17*%
X60925000Y-40425000D03*
X63000000Y-40425000D03*
%TD*%
D14*
%TO.C,FB2*%
X82350000Y-124625000D03*
X80050000Y-124625000D03*
%TD*%
D26*
%TO.C,D5*%
X115350000Y-34200000D03*
X111850000Y-34200000D03*
%TD*%
D15*
%TO.C,C11*%
X101200000Y-111700000D03*
X101200000Y-113775000D03*
%TD*%
D16*
%TO.C,C22*%
X104037500Y-94220000D03*
X106112500Y-94220000D03*
%TD*%
D11*
%TO.C,R27*%
X100375000Y-90970000D03*
X98375000Y-90970000D03*
%TD*%
%TO.C,R2*%
X63000000Y-36375000D03*
X61000000Y-36375000D03*
%TD*%
D23*
%TO.C,C2*%
X62850000Y-133975000D03*
X60775000Y-133975000D03*
%TD*%
D13*
%TO.C,R8*%
X67800000Y-135950000D03*
X69800000Y-135950000D03*
%TD*%
D11*
%TO.C,R28*%
X111750000Y-90950000D03*
X109750000Y-90950000D03*
%TD*%
%TO.C,R30*%
X77900000Y-98175000D03*
X75900000Y-98175000D03*
%TD*%
D18*
%TO.C,R69*%
X105100000Y-108100000D03*
X105100000Y-106100000D03*
%TD*%
D25*
%TO.C,Q6*%
X111000000Y-133400000D03*
X111000000Y-131500000D03*
X112875000Y-132450000D03*
%TD*%
D23*
%TO.C,C20*%
X72250000Y-96375000D03*
X70175000Y-96375000D03*
%TD*%
D13*
%TO.C,R7*%
X81550000Y-74925000D03*
X83550000Y-74925000D03*
%TD*%
D11*
%TO.C,R6*%
X83550000Y-72925000D03*
X81550000Y-72925000D03*
%TD*%
D13*
%TO.C,R59*%
X92800000Y-72925000D03*
X94800000Y-72925000D03*
%TD*%
D25*
%TO.C,Q1*%
X66525000Y-33637500D03*
X66525000Y-31737500D03*
X68400000Y-32687500D03*
%TD*%
D23*
%TO.C,C6*%
X89225000Y-107225000D03*
X87150000Y-107225000D03*
%TD*%
D11*
%TO.C,R45*%
X94812500Y-109980000D03*
X92812500Y-109980000D03*
%TD*%
D18*
%TO.C,R15*%
X71200000Y-108187500D03*
X71200000Y-106187500D03*
%TD*%
D11*
%TO.C,R9*%
X69800000Y-129950000D03*
X67800000Y-129950000D03*
%TD*%
%TO.C,R22*%
X77850000Y-88975000D03*
X75850000Y-88975000D03*
%TD*%
%TO.C,R53*%
X83375000Y-122200000D03*
X81375000Y-122200000D03*
%TD*%
D25*
%TO.C,Q4*%
X107900000Y-33637500D03*
X107900000Y-31737500D03*
X109775000Y-32687500D03*
%TD*%
D11*
%TO.C,R38*%
X77900000Y-102225000D03*
X75900000Y-102225000D03*
%TD*%
M02*
