M48
; DRILL file KiCad 10.0.3 date 2026-05-22T15:59:21
; FORMAT={-:-/ absolute / metric / decimal}
; #@! TF.CreationDate,2026-05-22T15:59:21+02:00
; #@! TF.GenerationSoftware,Kicad,Pcbnew,10.0.3
; #@! TF.FileFunction,Plated,1,4,PTH
FMAT,2
METRIC
; #@! TA.AperFunction,Plated,PTH,ViaDrill
T1C0.300
; #@! TA.AperFunction,Plated,PTH,ViaDrill
T2C0.400
; #@! TA.AperFunction,Plated,PTH,ViaDrill
T3C0.600
; #@! TA.AperFunction,Plated,PTH,ComponentDrill
T4C0.600
; #@! TA.AperFunction,Plated,PTH,ComponentDrill
T5C0.900
; #@! TA.AperFunction,Plated,PTH,ComponentDrill
T6C1.000
; #@! TA.AperFunction,Plated,PTH,ComponentDrill
T7C1.100
; #@! TA.AperFunction,Plated,PTH,ComponentDrill
T8C1.200
; #@! TA.AperFunction,Plated,PTH,ComponentDrill
T9C1.220
; #@! TA.AperFunction,Plated,PTH,ComponentDrill
T10C1.420
; #@! TA.AperFunction,Plated,PTH,ComponentDrill
T11C1.430
; #@! TA.AperFunction,Plated,PTH,ComponentDrill
T12C1.700
; #@! TA.AperFunction,Plated,PTH,ComponentDrill
T13C1.800
%
G90
G05
T1
X77.05Y-62.775
X80.45Y-110.75
X91.875Y-93.05
X92.625Y-92.375
X94.875Y-106.075
X95.525Y-67.55
X98.625Y-103.225
X100.35Y-77.225
X100.4Y-55.75
X101.35Y-58.15
T2
X61.1Y-31.5
X61.1Y-32.4
X61.6Y-86.4
X61.6Y-87.3
X62.0Y-94.1
X62.0Y-95.0
X62.1Y-103.4
X62.1Y-104.3
X62.5Y-57.3
X62.5Y-58.2
X62.5Y-86.4
X62.5Y-87.3
X62.9Y-94.1
X62.9Y-95.0
X63.0Y-103.4
X63.0Y-104.3
X63.4Y-57.3
X63.4Y-58.2
X64.05Y-75.35
X64.35Y-39.1
X64.4Y-37.6
X64.97Y-135.902
X65.5Y-93.75
X65.55Y-97.35
X65.8Y-75.575
X66.25Y-95.325
X66.25Y-107.4
X66.5Y-137.25
X67.65Y-103.9
X67.705Y-106.605
X68.0Y-104.9
X68.5Y-95.9
X68.812Y-99.443
X69.0Y-94.0
X69.9Y-111.8
X70.0Y-113.5
X70.018Y-59.418
X70.4Y-90.6
X70.55Y-88.55
X70.6Y-129.9
X70.6Y-133.9
X70.7Y-92.3
X71.057Y-60.4
X71.2Y-105.887
X71.2Y-119.8
X71.4Y-80.9
X72.0Y-129.9
X72.1Y-90.8
X72.2Y-107.2
X72.3Y-93.05
X72.4Y-78.6
X72.8Y-59.0
X73.1Y-113.8
X73.442Y-111.823
X73.6Y-104.9
X73.7Y-69.9
X73.725Y-62.6
X74.05Y-109.355
X75.2Y-75.4
X75.35Y-95.9
X75.5Y-66.8
X75.59Y-104.9
X75.9Y-61.725
X76.1Y-115.9
X76.1Y-116.8
X76.2Y-82.4
X76.4Y-93.9
X76.4Y-94.8
X76.414Y-106.714
X76.545Y-129.545
X76.6Y-109.91
X76.609Y-64.184
X76.7Y-76.3
X76.95Y-89.0
X77.0Y-82.1
X77.0Y-84.4
X77.0Y-115.9
X77.0Y-116.8
X77.2Y-93.9
X77.2Y-94.8
X77.6Y-76.3
X78.2Y-87.3
X78.2Y-104.927
X78.2Y-106.9
X78.407Y-64.993
X78.587Y-68.125
X78.9Y-79.3
X78.935Y-77.135
X79.6Y-85.8
X79.6Y-104.1
X79.6Y-116.7
X79.619Y-102.519
X80.0Y-67.6
X80.2Y-69.525
X80.7Y-81.2
X80.7Y-82.4
X80.7Y-109.2
X80.9Y-67.6
X82.0Y-76.2
X82.335Y-70.064
X82.4Y-106.9
X83.0Y-67.1
X83.1Y-78.8
X83.45Y-101.65
X83.9Y-67.1
X84.179Y-122.112
X84.3Y-105.8
X84.45Y-76.1
X84.55Y-89.7
X84.55Y-90.6
X84.612Y-109.627
X84.85Y-107.7
X85.2Y-105.8
X85.325Y-95.175
X85.325Y-96.075
X85.35Y-97.0
X85.35Y-97.9
X85.45Y-89.7
X85.582Y-101.657
X85.9Y-61.5
X85.9Y-62.4
X86.565Y-59.0
X86.8Y-61.5
X86.8Y-62.4
X86.85Y-84.1
X86.85Y-105.65
X87.0Y-70.45
X87.1Y-119.45
X87.1Y-120.55
X87.212Y-69.29
X87.7Y-81.05
X87.85Y-110.5
X87.85Y-111.4
X88.1Y-60.5
X88.2Y-64.6
X88.2Y-70.6
X88.25Y-93.75
X88.25Y-94.65
X88.7Y-121.4
X88.7Y-122.812
X88.85Y-88.8
X88.85Y-89.7
X88.85Y-90.6
X88.85Y-91.425
X88.925Y-99.75
X88.925Y-100.65
X88.925Y-102.725
X88.925Y-103.625
X89.0Y-93.75
X89.0Y-94.65
X89.25Y-74.375
X89.4Y-64.6
X90.5Y-62.6
X90.5Y-94.15
X90.5Y-105.8
X90.5Y-107.65
X90.51Y-65.0
X90.9Y-59.0
X91.025Y-85.05
X91.05Y-82.75
X91.1Y-112.13
X91.2Y-76.7
X91.8Y-106.9
X92.138Y-70.263
X92.15Y-76.45
X92.2Y-113.3
X92.7Y-66.9
X93.6Y-66.9
X93.8Y-111.0
X95.1Y-76.1
X95.2Y-88.3
X95.9Y-53.25
X95.9Y-117.1
X96.025Y-86.6
X96.025Y-108.8
X96.6Y-69.7
X96.8Y-68.15
X98.0Y-122.5
X98.025Y-84.6
X98.025Y-117.1
X98.1Y-104.1
X98.5Y-58.1
X98.54Y-120.86
X98.6Y-119.2
X98.7Y-85.8
X98.8Y-87.3
X98.8Y-104.9
X99.3Y-94.3
X99.4Y-58.1
X99.8Y-73.0
X99.9Y-116.3
X100.2Y-94.3
X100.387Y-61.687
X100.4Y-63.9
X100.75Y-104.55
X100.8Y-103.55
X100.995Y-119.395
X101.0Y-115.0
X101.8Y-78.3
X101.95Y-96.3
X103.2Y-61.5
X103.2Y-62.4
X103.3Y-121.4
X103.7Y-73.8
X103.7Y-74.7
X103.9Y-122.1
X104.1Y-61.5
X104.1Y-62.4
X104.15Y-98.7
X104.15Y-99.9
X104.345Y-127.655
X104.6Y-73.8
X104.6Y-74.7
X105.0Y-118.5
X105.05Y-77.55
X105.1Y-105.75
X105.25Y-135.5
X105.25Y-137.1
X105.66Y-111.75
X106.2Y-65.6
X106.8Y-83.0
X106.8Y-83.9
X106.875Y-75.575
X107.145Y-113.245
X107.7Y-83.0
X107.7Y-83.9
X107.7Y-115.7
X108.975Y-95.475
X109.5Y-117.3
X109.5Y-118.2
X109.725Y-137.204
X109.925Y-107.1
X110.0Y-82.025
X110.1Y-87.3
X110.3Y-103.2
X110.7Y-88.0
X111.05Y-83.325
X111.2Y-103.2
X111.6Y-136.05
X112.05Y-93.7
X112.15Y-135.1
X112.2Y-45.4
X112.2Y-46.3
X112.2Y-105.0
X112.9Y-98.9
X113.0Y-66.6
X113.0Y-67.5
X113.0Y-73.6
X113.0Y-74.5
X113.1Y-45.4
X113.1Y-46.3
X113.7Y-49.9
X113.7Y-50.8
X113.9Y-66.6
X113.9Y-67.5
X113.9Y-73.6
X113.9Y-74.5
X114.0Y-99.7
X114.6Y-49.9
X114.6Y-50.8
X115.4Y-31.5
X115.4Y-32.4
T3
X69.0Y-112.555
X70.2Y-85.4
X70.475Y-97.975
X71.19Y-102.953
X73.8Y-95.6
X74.4Y-38.6
X76.3Y-111.9
X80.0Y-123.4
X83.984Y-77.984
X85.5Y-67.8
X85.8Y-79.8
X85.8Y-116.9
X88.5Y-78.2
X88.525Y-71.875
X90.5Y-115.6
X95.9Y-123.4
X100.005Y-113.274
X100.925Y-95.375
X104.3Y-89.3
X104.3Y-92.1
X104.8Y-102.5
X106.1Y-38.6
X106.112Y-94.22
X108.5Y-108.6
T5
X70.61Y-33.675
X73.15Y-33.675
X103.2Y-33.675
X105.74Y-33.675
T6
X62.01Y-106.675
X62.01Y-109.215
X62.01Y-111.755
X62.01Y-114.295
X62.01Y-116.835
X62.01Y-119.375
X62.01Y-121.915
X62.01Y-124.455
X62.01Y-126.995
X64.4Y-61.025
X64.4Y-63.525
X64.45Y-77.575
X64.45Y-80.075
X64.55Y-106.675
X64.55Y-109.215
X64.55Y-111.755
X64.55Y-114.295
X64.55Y-116.835
X64.55Y-119.375
X64.55Y-121.915
X64.55Y-124.455
X64.55Y-126.995
X66.9Y-61.025
X66.9Y-63.525
X66.95Y-77.575
X66.95Y-80.075
X69.4Y-61.025
X69.4Y-63.525
X69.45Y-77.575
X69.45Y-80.075
X75.95Y-70.075
X75.95Y-73.865
X78.49Y-70.075
X78.49Y-73.865
X78.55Y-46.725
X78.55Y-61.025
X78.55Y-63.525
X81.05Y-46.725
X81.05Y-61.025
X81.05Y-63.525
X83.55Y-46.725
X83.55Y-61.025
X83.55Y-63.525
X86.7Y-127.575
X86.7Y-130.115
X86.7Y-132.655
X86.7Y-135.195
X86.7Y-137.735
X89.24Y-127.575
X89.24Y-130.115
X89.24Y-132.655
X89.24Y-135.195
X89.24Y-137.735
X92.7Y-46.75
X92.7Y-61.025
X92.7Y-63.525
X95.2Y-46.75
X95.2Y-61.025
X95.2Y-63.525
X97.7Y-46.75
X97.7Y-61.025
X97.7Y-63.525
X97.96Y-70.1
X97.96Y-74.7
X100.5Y-70.1
X100.5Y-74.7
X106.85Y-61.025
X106.85Y-63.525
X106.9Y-77.575
X106.9Y-80.075
X109.35Y-61.025
X109.35Y-63.525
X109.4Y-77.575
X109.4Y-80.075
X111.71Y-106.675
X111.71Y-109.215
X111.71Y-111.755
X111.71Y-114.295
X111.71Y-116.835
X111.71Y-119.375
X111.71Y-121.915
X111.71Y-124.455
X111.71Y-126.995
X111.85Y-61.025
X111.85Y-63.525
X111.9Y-77.575
X111.9Y-80.075
X114.25Y-106.675
X114.25Y-109.215
X114.25Y-111.755
X114.25Y-114.295
X114.25Y-116.835
X114.25Y-119.375
X114.25Y-121.915
X114.25Y-124.455
X114.25Y-126.995
T8
X77.25Y-79.675
X80.75Y-79.675
X80.75Y-138.175
X95.45Y-79.675
X98.95Y-79.675
X98.95Y-138.175
T9
X72.93Y-42.875
X103.32Y-42.9
T10
X69.83Y-42.875
X106.42Y-42.9
T11
X61.53Y-42.875
X114.72Y-42.9
T12
X74.8Y-83.825
X74.8Y-134.025
X83.2Y-85.025
X83.2Y-132.825
X93.0Y-83.825
X93.0Y-134.025
X101.4Y-85.025
X101.4Y-132.825
T4
G00X69.15Y-121.865
M15
G01X70.55Y-121.865
M16
G05
G00X69.15Y-124.665
M15
G01X70.55Y-124.665
M16
G05
G00X69.15Y-127.465
M15
G01X70.55Y-127.465
M16
G05
G00X105.8Y-121.865
M15
G01X107.2Y-121.865
M16
G05
G00X105.8Y-124.665
M15
G01X107.2Y-124.665
M16
G05
G00X105.8Y-127.465
M15
G01X107.2Y-127.465
M16
G05
T7
G00X61.8Y-53.525
M15
G01X62.5Y-53.525
M16
G05
G00X61.85Y-70.075
M15
G01X62.55Y-70.075
M16
G05
G00X71.3Y-53.525
M15
G01X72.0Y-53.525
M16
G05
G00X71.35Y-70.075
M15
G01X72.05Y-70.075
M16
G05
G00X75.95Y-53.525
M15
G01X76.65Y-53.525
M16
G05
G00X85.45Y-53.525
M15
G01X86.15Y-53.525
M16
G05
G00X90.1Y-53.525
M15
G01X90.8Y-53.525
M16
G05
G00X99.6Y-53.525
M15
G01X100.3Y-53.525
M16
G05
G00X104.25Y-53.525
M15
G01X104.95Y-53.525
M16
G05
G00X104.3Y-70.075
M15
G01X105.0Y-70.075
M16
G05
G00X113.75Y-53.525
M15
G01X114.45Y-53.525
M16
G05
G00X113.8Y-70.075
M15
G01X114.5Y-70.075
M16
G05
T13
G00X76.65Y-39.875
M15
G01X76.65Y-39.575
M16
G05
G00X85.45Y-39.875
M15
G01X85.45Y-39.575
M16
G05
G00X90.8Y-39.9
M15
G01X90.8Y-39.6
M16
G05
G00X99.6Y-39.9
M15
G01X99.6Y-39.6
M16
G05
M30
